<mxfile host="app.diagrams.net" modified="2023-10-17T09:44:34.779Z" agent="Mozilla/5.0 (Macintosh; Intel Mac OS X 10_15_7) AppleWebKit/537.36 (KHTML, like Gecko) Chrome/116.0.0.0 Safari/537.36" version="21.6.3" etag="X5qYt2f7ZNV1U_z5RsQ3" type="github">
  <diagram name="第 1 页" id="dS3eurrgdBJsNmCLz-l4">
    <mxGraphModel>
      <root>
        <mxCell id="0" />
        <mxCell id="1" parent="0" />
      </root>
    </mxGraphModel>
  </diagram>
</mxfile>
